<?xml version="1.0" encoding="UTF-8" standalone="no"?>
<!-- Created with Inkscape (http://www.inkscape.org/) -->
<svg
   xmlns:dc="http://purl.org/dc/elements/1.1/"
   xmlns:cc="http://creativecommons.org/ns#"
   xmlns:rdf="http://www.w3.org/1999/02/22-rdf-syntax-ns#"
   xmlns:svg="http://www.w3.org/2000/svg"
   xmlns="http://www.w3.org/2000/svg"
   xmlns:sodipodi="http://sodipodi.sourceforge.net/DTD/sodipodi-0.dtd"
   xmlns:inkscape="http://www.inkscape.org/namespaces/inkscape"
   width="744.09448819"
   height="1052.3622047"
   id="svg2"
   sodipodi:version="0.32"
   inkscape:version="0.46"
   sodipodi:docname="drawing.svg"
   inkscape:output_extension="org.inkscape.output.svg.inkscape">
  <defs
     id="defs4">
    <inkscape:perspective
       sodipodi:type="inkscape:persp3d"
       inkscape:vp_x="0 : 526.18109 : 1"
       inkscape:vp_y="0 : 1000 : 0"
       inkscape:vp_z="744.09448 : 526.18109 : 1"
       inkscape:persp3d-origin="372.04724 : 350.78739 : 1"
       id="perspective10" />
  </defs>
  <sodipodi:namedview
     id="base"
     pagecolor="#ffffff"
     bordercolor="#666666"
     borderopacity="1.0"
     gridtolerance="10000"
     guidetolerance="10"
     objecttolerance="10"
     inkscape:pageopacity="0.0"
     inkscape:pageshadow="2"
     inkscape:zoom="0.98994949"
     inkscape:cx="283.34145"
     inkscape:cy="818.38834"
     inkscape:document-units="px"
     inkscape:current-layer="layer1"
     showgrid="false"
     inkscape:window-width="640"
     inkscape:window-height="675"
     inkscape:window-x="110"
     inkscape:window-y="138" />
  <metadata
     id="metadata7">
    <rdf:RDF>
      <cc:Work
         rdf:about="">
        <dc:format>image/svg+xml</dc:format>
        <dc:type
           rdf:resource="http://purl.org/dc/dcmitype/StillImage" />
      </cc:Work>
    </rdf:RDF>
  </metadata>
  <g
     inkscape:label="Layer 1"
     inkscape:groupmode="layer"
     id="layer1">
    <g
       id="g2409">
      <path
         id="path2407"
         d="M 122.73352,337.67925 L 154.04826,320.50666 L 160.10918,296.263 L 157.07872,319.4965 L 172.23101,304.34422 L 161.11933,320.50666 L 172.23101,329.59803 L 155.05841,321.51681 L 122.73352,337.67925 z"
         style="fill:#ffaaaa;fill-rule:evenodd;stroke:#000000;stroke-width:1px;stroke-linecap:butt;stroke-linejoin:miter;stroke-opacity:1" />
      <path
         id="path2405"
         d="M 131.31984,334.14373 L 100.0051,316.97114 L 93.944186,292.72748 L 96.974644,315.96098 L 81.822356,300.8087 L 92.934034,316.97114 L 81.822356,326.06251 L 98.994949,317.98129 L 131.31984,334.14373 z"
         style="fill:#ffaaaa;fill-rule:evenodd;stroke:#000000;stroke-width:1px;stroke-linecap:butt;stroke-linejoin:miter;stroke-opacity:1" />
      <path
         id="path2401"
         d="M 118.18785,353.33662 L 111.11678,394.75288 C 111.11678,394.75288 69.700526,395.76303 71.720831,403.84425 C 73.741136,411.92547 111.11678,407.88486 111.11678,407.88486 L 118.18785,353.33662 z"
         style="fill:#aa4400;fill-rule:evenodd;stroke:#000000;stroke-width:1px;stroke-linecap:butt;stroke-linejoin:miter;stroke-opacity:1" />
      <path
         id="path2403"
         d="M 135.32466,352.83155 L 142.39573,394.24781 C 142.39573,394.24781 183.81198,395.25796 181.79167,403.33918 C 179.77137,411.4204 142.39573,407.37979 142.39573,407.37979 L 135.32466,352.83155 z"
         style="fill:#aa4400;fill-rule:evenodd;stroke:#000000;stroke-width:1px;stroke-linecap:butt;stroke-linejoin:miter;stroke-opacity:1" />
      <rect
         y="304.90161"
         x="112.17925"
         height="65.555275"
         width="30.199936"
         id="rect2399"
         style="fill:#55d400;stroke:#000000;stroke-width:1.10464132000000000" />
      <path
         d="M 157.14285,280.93362 A 28.571428,28.571428 0 1 1 99.999998,280.93362 A 28.571428,28.571428 0 1 1 157.14285,280.93362 z"
         sodipodi:ry="28.571428"
         sodipodi:rx="28.571428"
         sodipodi:cy="280.93362"
         sodipodi:cx="128.57143"
         id="path2383"
         style="fill:#ffffff;fill-rule:evenodd;stroke:#000000;stroke-width:1px;stroke-linecap:butt;stroke-linejoin:miter;stroke-opacity:1"
         sodipodi:type="arc" />
      <path
         d="M 125.25892,274.03964 A 7.0710678,7.5761442 0 1 1 111.11678,274.03964 A 7.0710678,7.5761442 0 1 1 125.25892,274.03964 z"
         sodipodi:ry="7.5761442"
         sodipodi:rx="7.0710678"
         sodipodi:cy="274.03964"
         sodipodi:cx="118.18785"
         id="path2385"
         style="fill:#ffffff;stroke:#000000"
         sodipodi:type="arc" />
      <path
         transform="translate(19.192895,1.5152329)"
         d="M 125.25892,274.03964 A 7.0710678,7.5761442 0 1 1 111.11678,274.03964 A 7.0710678,7.5761442 0 1 1 125.25892,274.03964 z"
         sodipodi:ry="7.5761442"
         sodipodi:rx="7.0710678"
         sodipodi:cy="274.03964"
         sodipodi:cx="118.18785"
         id="path2387"
         style="fill:#ffffff;stroke:#000000"
         sodipodi:type="arc" />
      <path
         id="path2391"
         d="M 108.08633,288.68686 C 129.29953,308.88991 144.45182,294.74777 144.45182,294.74777"
         style="fill:none;fill-rule:evenodd;stroke:#000000;stroke-width:1px;stroke-linecap:butt;stroke-linejoin:miter;stroke-opacity:1" />
      <path
         transform="matrix(0.3962779,0,0,0.5031927,91.050587,135.63982)"
         d="M 125.25892,274.03964 A 7.0710678,7.5761442 0 1 1 111.11678,274.03964 A 7.0710678,7.5761442 0 1 1 125.25892,274.03964 z"
         sodipodi:ry="7.5761442"
         sodipodi:rx="7.0710678"
         sodipodi:cy="274.03964"
         sodipodi:cx="118.18785"
         id="path2393"
         style="fill:#000000;stroke:#000000"
         sodipodi:type="arc" />
      <path
         transform="matrix(0.3962779,0,0,0.5031927,74.383071,135.63982)"
         d="M 125.25892,274.03964 A 7.0710678,7.5761442 0 1 1 111.11678,274.03964 A 7.0710678,7.5761442 0 1 1 125.25892,274.03964 z"
         sodipodi:ry="7.5761442"
         sodipodi:rx="7.0710678"
         sodipodi:cy="274.03964"
         sodipodi:cx="118.18785"
         id="path2395"
         style="fill:#000000;stroke:#000000"
         sodipodi:type="arc" />
      <path
         id="path2397"
         d="M 105.05586,266.4635 L 92.934034,236.15892 L 113.13709,257.37213 L 103.03556,224.03709 L 119.198,236.15892 L 120.20815,256.36197 L 128.28937,224.03709 L 129.29953,249.29091 L 149.50258,229.08786 L 171.72593,250.30106 L 146.47212,247.2706 L 158.59395,267.47365 L 148.49242,267.47365 L 126.26907,258.38228 L 105.05586,266.4635 z"
         style="fill:#2b0000;fill-rule:evenodd;stroke:#000000;stroke-width:1px;stroke-linecap:butt;stroke-linejoin:miter;stroke-opacity:1" />
    </g>
  </g>
</svg>
